<svg width="240" height="240" viewBox="0 0 240 240" fill="none" xmlns="http://www.w3.org/2000/svg"><path d="M185.393 111.713C195.936 111.713 204.483 120.261 204.483 130.804C204.483 141.347 195.936 149.894 185.393 149.894" fill="#FF6602"/><path d="M181.342 98.771H79.2509V162.828H181.342V98.771Z" fill="#FF6602"/><path d="M181.342 92.894H79.2509V162.828H181.342V92.894Z" stroke="#231F20" stroke-width="1.25" stroke-linecap="round" stroke-linejoin="round"/><path d="M181.335 98.771H79.2509" stroke="#231F20" stroke-width="1.25" stroke-linecap="round" stroke-linejoin="round"/><path d="M75.5824 170.782V92.5568C75.5824 90.7153 77.0718 89.2261 78.9133 89.2261H181.679C183.521 89.2261 185.01 90.7153 185.01 92.5568V170.782C185.01 172.205 183.859 173.357 182.435 173.357H78.165C76.7416 173.357 75.5896 172.205 75.5896 170.782H75.5824Z" stroke="#231F20" stroke-width="1.25" stroke-linecap="round" stroke-linejoin="round"/><path d="M79.627 173.357H73.1855C71.7622 173.357 70.6101 172.205 70.6101 170.782V92.5568C70.6101 90.7153 72.0995 89.2261 73.941 89.2261H78.8787" stroke="#231F20" stroke-width="1.25" stroke-linecap="round" stroke-linejoin="round"/><path d="M84.014 89.1376C84.2635 86.4229 85.3788 84.3687 86.7141 84.3687C88.2328 84.3687 89.4654 87.0099 89.4654 90.2674C89.4654 93.525 88.2328 96.1662 86.7141 96.1662" stroke="#231F20" stroke-width="1.25" stroke-linecap="round" stroke-linejoin="round"/><path d="M87.6516 97.1129C88.3486 97.1129 88.9137 96.5479 88.9137 95.8509C88.9137 95.154 88.3486 94.5889 87.6516 94.5889C86.9547 94.5889 86.3899 95.154 86.3899 95.8509C86.3899 96.5479 86.9547 97.1129 87.6516 97.1129Z" stroke="#231F20" stroke-width="1.25" stroke-linecap="round" stroke-linejoin="round"/><path d="M96.3604 89.1376C96.6098 86.4229 97.7251 84.3687 99.0604 84.3687C100.579 84.3687 101.812 87.0099 101.812 90.2674C101.812 93.525 100.579 96.1662 99.0604 96.1662" stroke="#231F20" stroke-width="1.25" stroke-linecap="round" stroke-linejoin="round"/><path d="M100.001 97.1129C100.698 97.1129 101.263 96.5479 101.263 95.8509C101.263 95.154 100.698 94.5889 100.001 94.5889C99.3039 94.5889 98.7391 95.154 98.7391 95.8509C98.7391 96.5479 99.3039 97.1129 100.001 97.1129Z" stroke="#231F20" stroke-width="1.25" stroke-linecap="round" stroke-linejoin="round"/><path d="M108.71 89.1376C108.959 86.4229 110.074 84.3687 111.41 84.3687C112.928 84.3687 114.161 87.0099 114.161 90.2674C114.161 93.525 112.928 96.1662 111.41 96.1662" stroke="#231F20" stroke-width="1.25" stroke-linecap="round" stroke-linejoin="round"/><path d="M112.347 97.1129C113.044 97.1129 113.609 96.5479 113.609 95.8509C113.609 95.154 113.044 94.5889 112.347 94.5889C111.65 94.5889 111.086 95.154 111.086 95.8509C111.086 96.5479 111.65 97.1129 112.347 97.1129Z" stroke="#231F20" stroke-width="1.25" stroke-linecap="round" stroke-linejoin="round"/><path d="M121.056 89.1376C121.305 86.4229 122.421 84.3687 123.756 84.3687C125.275 84.3687 126.507 87.0099 126.507 90.2674C126.507 93.525 125.275 96.1662 123.756 96.1662" stroke="#231F20" stroke-width="1.25" stroke-linecap="round" stroke-linejoin="round"/><path d="M124.697 97.1129C125.394 97.1129 125.959 96.5479 125.959 95.8509C125.959 95.154 125.394 94.5889 124.697 94.5889C124 94.5889 123.435 95.154 123.435 95.8509C123.435 96.5479 124 97.1129 124.697 97.1129Z" stroke="#231F20" stroke-width="1.25" stroke-linecap="round" stroke-linejoin="round"/><path d="M132.855 89.1376C133.105 86.4229 134.22 84.3687 135.555 84.3687C137.074 84.3687 138.306 87.0099 138.306 90.2674C138.306 93.525 137.074 96.1662 135.555 96.1662" stroke="#231F20" stroke-width="1.25" stroke-linecap="round" stroke-linejoin="round"/><path d="M136.493 97.1129C137.19 97.1129 137.755 96.5479 137.755 95.8509C137.755 95.154 137.19 94.5889 136.493 94.5889C135.796 94.5889 135.231 95.154 135.231 95.8509C135.231 96.5479 135.796 97.1129 136.493 97.1129Z" stroke="#231F20" stroke-width="1.25" stroke-linecap="round" stroke-linejoin="round"/><path d="M145.202 89.1376C145.451 86.4229 146.566 84.3687 147.901 84.3687C149.42 84.3687 150.653 87.0099 150.653 90.2674C150.653 93.525 149.42 96.1662 147.901 96.1662" stroke="#231F20" stroke-width="1.25" stroke-linecap="round" stroke-linejoin="round"/><path d="M148.842 97.1129C149.539 97.1129 150.104 96.5479 150.104 95.8509C150.104 95.154 149.539 94.5889 148.842 94.5889C148.145 94.5889 147.58 95.154 147.58 95.8509C147.58 96.5479 148.145 97.1129 148.842 97.1129Z" stroke="#231F20" stroke-width="1.25" stroke-linecap="round" stroke-linejoin="round"/><path d="M157.551 89.1376C157.8 86.4229 158.916 84.3687 160.251 84.3687C161.77 84.3687 163.002 87.0099 163.002 90.2674C163.002 93.525 161.77 96.1662 160.251 96.1662" stroke="#231F20" stroke-width="1.25" stroke-linecap="round" stroke-linejoin="round"/><path d="M161.189 97.1129C161.886 97.1129 162.45 96.5479 162.45 95.8509C162.45 95.154 161.886 94.5889 161.189 94.5889C160.492 94.5889 159.927 95.154 159.927 95.8509C159.927 96.5479 160.492 97.1129 161.189 97.1129Z" stroke="#231F20" stroke-width="1.25" stroke-linecap="round" stroke-linejoin="round"/><path d="M169.897 89.1376C170.147 86.4229 171.262 84.3687 172.597 84.3687C174.116 84.3687 175.348 87.0099 175.348 90.2674C175.348 93.525 174.116 96.1662 172.597 96.1662" stroke="#231F20" stroke-width="1.25" stroke-linecap="round" stroke-linejoin="round"/><path d="M173.538 97.1129C174.235 97.1129 174.8 96.5479 174.8 95.8509C174.8 95.154 174.235 94.5889 173.538 94.5889C172.841 94.5889 172.276 95.154 172.276 95.8509C172.276 96.5479 172.841 97.1129 173.538 97.1129Z" stroke="#231F20" stroke-width="1.25" stroke-linecap="round" stroke-linejoin="round"/><path d="M116.721 173.356L116.663 183.899C116.663 187.898 119.906 191.141 123.904 191.141H131.087" stroke="#231F20" stroke-width="1.25" stroke-linecap="round" stroke-linejoin="round"/><path d="M139.473 173.356V183.899C139.473 187.898 142.715 191.141 146.714 191.141" stroke="#231F20" stroke-width="1.25" stroke-linecap="round" stroke-linejoin="round"/><path d="M112.848 173.356L112.907 183.694C112.907 189.776 117.478 194.707 123.56 194.707H129.451" stroke="#231F20" stroke-width="1.25" stroke-linecap="round" stroke-linejoin="round"/><path d="M152.136 191.134H129.45V194.707L152.143 194.993C152.4 194.993 152.605 194.788 152.605 194.531V191.589C152.605 191.332 152.392 191.126 152.136 191.126V191.134Z" stroke="#231F20" stroke-width="1.25" stroke-linecap="round" stroke-linejoin="round"/><path d="M215.869 195H159.927" stroke="#231F20" stroke-width="1.25" stroke-linecap="round" stroke-linejoin="round"/><path d="M105.012 195H59.8685" stroke="#231F20" stroke-width="1.25" stroke-linecap="round" stroke-linejoin="round"/><path d="M50.6593 195H41.0996" stroke="#231F20" stroke-width="1.25" stroke-linecap="round" stroke-linejoin="round"/><path d="M165.928 68.9324H158.525C156.382 68.9324 154.878 66.8342 155.561 64.8019L155.649 64.5377C156.573 61.8084 154.541 58.9766 151.658 58.9766C148.796 58.9766 146.771 61.7645 147.652 64.4865L147.762 64.8386C148.415 66.8562 146.911 68.9324 144.791 68.9324H144.578C142.597 68.9324 141.115 67.113 141.518 65.1688L143.235 56.9149C144.262 51.9699 140.491 47.3257 135.436 47.3257C130.249 47.3257 126.441 52.2046 127.71 57.2377L129.677 65.0439C130.176 67.0175 128.679 68.9324 126.647 68.9324C124.754 68.9324 123.294 67.2671 123.55 65.3889C123.837 63.2319 122.157 61.3096 119.985 61.3096H118.547C116.368 61.3096 114.688 63.2245 114.981 65.3889L115.135 66.5406C115.304 67.8026 114.321 68.9324 113.044 68.9324H99.7794" stroke="#231F20" stroke-width="1.25" stroke-linecap="round" stroke-linejoin="round"/><path d="M70.6093 119.997C65.4222 119.997 61.6146 124.876 62.8839 129.909L64.8502 137.715C65.3491 139.688 63.8522 141.603 61.8199 141.603C59.927 141.603 58.4672 139.938 58.724 138.06C59.0101 135.903 57.3301 133.981 55.1584 133.981H53.7201C51.541 133.981 49.861 135.895 50.1545 138.06L50.3085 139.212C50.4773 140.473 49.4941 141.603 48.2175 141.603H45.0116" stroke="#231F20" stroke-width="1.25" stroke-linecap="round" stroke-linejoin="round"/><path d="M36.368 141.603H24.1305" stroke="#231F20" stroke-width="1.25" stroke-linecap="round" stroke-linejoin="round"/><path d="M204.483 98.2427V103.4" stroke="#231F20" stroke-width="1.25" stroke-linecap="round" stroke-linejoin="round"/><path d="M201.91 100.818H207.06" stroke="#231F20" stroke-width="1.25" stroke-linecap="round" stroke-linejoin="round"/><path d="M172.224 181.457V186.607" stroke="#231F20" stroke-width="1.25" stroke-linecap="round" stroke-linejoin="round"/><path d="M169.648 184.032H174.805" stroke="#231F20" stroke-width="1.25" stroke-linecap="round" stroke-linejoin="round"/><path d="M41.0996 93.415V100.818" stroke="#231F20" stroke-width="1.25" stroke-linecap="round" stroke-linejoin="round"/><path d="M37.394 97.1206H44.8042" stroke="#231F20" stroke-width="1.25" stroke-linecap="round" stroke-linejoin="round"/><path d="M104.798 45V48.6464" stroke="#231F20" stroke-width="1.25" stroke-linecap="round" stroke-linejoin="round"/><path d="M106.624 46.8267H102.978" stroke="#231F20" stroke-width="1.25" stroke-linecap="round" stroke-linejoin="round"/><path d="M55.5897 167.7V171.346" stroke="#231F20" stroke-width="1.25" stroke-linecap="round" stroke-linejoin="round"/><path d="M57.4107 169.527H53.7642" stroke="#231F20" stroke-width="1.25" stroke-linecap="round" stroke-linejoin="round"/><path d="M116.962 110.869H100.946V126.885H116.962V110.869Z" stroke="white" stroke-width="1.25" stroke-linecap="round" stroke-linejoin="round"/><path d="M104.872 118.896L108.606 123.364L114.08 114.663" stroke="white" stroke-width="1.25" stroke-linecap="round" stroke-linejoin="round"/><path d="M122.561 115.697H169.098" stroke="white" stroke-width="1.25" stroke-linecap="round" stroke-linejoin="round"/><path d="M122.561 122.33H160.199" stroke="white" stroke-width="1.25" stroke-linecap="round" stroke-linejoin="round"/><path d="M116.962 135.88H100.946V151.897H116.962V135.88Z" stroke="white" stroke-width="1.25" stroke-linecap="round" stroke-linejoin="round"/><path d="M104.872 143.907L108.606 148.375L114.08 139.674" stroke="white" stroke-width="1.25" stroke-linecap="round" stroke-linejoin="round"/><path d="M122.561 140.708H169.098" stroke="white" stroke-width="1.25" stroke-linecap="round" stroke-linejoin="round"/><path d="M122.561 147.34H147.036" stroke="white" stroke-width="1.25" stroke-linecap="round" stroke-linejoin="round"/><path d="M95.4304 117.289C89.7004 121.596 81.7767 133.701 97.8442 144.024" stroke="white" stroke-width="1.25" stroke-linecap="round" stroke-linejoin="round"/><path d="M89.6914 143.892L97.8353 144.024V135.88" stroke="white" stroke-width="1.25" stroke-linecap="round" stroke-linejoin="round"/></svg>